# xmcd
#
# Track frame offsets:
#	150
#	22977
#	42201
#	65567
#	94590
#	119857
#	141466
#	157818
#	180072
#	202644
#	230281
#	267436
#	283221
#	294819
#	311697
#	330593
#
# Disc length: 4735 seconds
#
# Revision: 0
# Processed by: cddbd v1.5.2PL0 Copyright (c) Steve Scherf et al.
# Submitted via: EZCDAudioConverter 5.0.3.2
#
DISCID=db127d10
DTITLE=Ina Forsman, Layla Zoe and Tasha Taylor - Blues Caravan 2016
DYEAR=2016
DGENRE=Blues
TTITLE0=Chain Of Fools
TTITLE1=Hanging Loose
TTITLE2=Devil May Dance Tonight
TTITLE3=Bubbly Kisses
TTITLE4=No Room For Love
TTITLE5=What Difference Does It Make
TTITLE6=Weatherman
TTITLE7=Who's Making Love
TTITLE8=Work Horse
TTITLE9=Don't Wanna Hurt Nobody
TTITLE10=Never Met A Man Like You
TTITLE11=Honky Tonk Woman
TTITLE12=Tell Mama
TTITLE13=In The Basement
TTITLE14=Come Together
TTITLE15=Rock Me Baby
EXTD=
EXTT0=
EXTT1=
EXTT2=
EXTT3=
EXTT4=
EXTT5=
EXTT6=
EXTT7=
EXTT8=
EXTT9=
EXTT10=
EXTT11=
EXTT12=
EXTT13=
EXTT14=
EXTT15=
PLAYORDER=
